<svg width="84" height="21" viewBox="0 0 84 21" fill="none" xmlns="http://www.w3.org/2000/svg">
<path d="M11.0216 0.301302C17.5159 0.301302 21.1808 5.01713 21.1808 10.3797C21.1808 15.7423 17.5159 20.4581 11.0216 20.4581C4.5272 20.4581 0.862323 15.7423 0.862323 10.3797C0.862323 5.01713 4.5272 0.301302 11.0216 0.301302ZM5.17394 10.3797C5.17394 13.9907 7.38364 16.7932 11.0216 16.7932C14.6056 16.7932 16.8692 13.9907 16.8692 10.3797C16.8692 6.76873 14.6056 3.96618 11.0216 3.96618C7.38364 3.96618 5.17394 6.76873 5.17394 10.3797ZM20.7507 4.42429V0.75941H35.9222V4.42429H30.4788V20H26.1672V4.42429H20.7507ZM37.2698 19.9731V0.75941H45.0038C49.4232 0.75941 52.1988 2.88827 52.1988 6.22977C52.1988 9.14012 50.5011 10.8109 48.5339 11.3768C50.2585 11.9157 50.9322 13.3978 51.5251 15.3111C52.064 17.0088 52.4952 18.7065 53.1419 19.8922V20H48.8034C48.2105 18.976 47.7794 17.3591 47.1865 15.6884C46.5667 13.9368 45.6505 12.9128 43.2522 12.9128H41.5814V19.9731H37.2698ZM41.5814 9.46349H44.7612C46.7284 9.46349 47.9949 8.43948 47.9949 6.82262C47.9949 5.20577 46.7284 4.2087 44.7343 4.2087H41.5814V9.46349ZM57.9226 20H53.4224L60.294 0.75941H65.7105L72.5282 20H67.9471L66.4111 15.365H59.4856L57.9226 20ZM60.5904 11.9696H65.3063L62.9618 4.74766H62.9079L60.5904 11.9696ZM77.2874 1.94511H75.6167V6.12198H74.2423V1.94511H72.5446V0.75941H77.2874V1.94511ZM77.9072 6.12198V0.75941H79.8474L80.9792 4.66681L82.0032 0.75941H83.8896V6.12198H82.5691V2.34932H82.5422L81.5451 6.12198H80.2516L79.2546 2.32237H79.2276V6.12198H77.9072Z" fill="white"/>
</svg>
